<mxfile host="app.diagrams.net" modified="2024-04-18T04:17:56.140Z" agent="Mozilla/5.0 (Windows NT 10.0; Win64; x64) AppleWebKit/537.36 (KHTML, like Gecko) Chrome/123.0.0.0 Safari/537.36" etag="hYLaypGoANYprqZPsUIp" version="24.2.5" type="device">
  <diagram name="Page-1" id="vqlDBy17wzxhhZNOXhju">
    <mxGraphModel dx="1290" dy="557" grid="1" gridSize="10" guides="1" tooltips="1" connect="1" arrows="1" fold="1" page="1" pageScale="1" pageWidth="850" pageHeight="1100" math="0" shadow="0">
      <root>
        <mxCell id="0" />
        <mxCell id="1" parent="0" />
        <mxCell id="SbjAzvhg__YMwDKprBxy-1" value="USER" style="rounded=0;whiteSpace=wrap;html=1;" parent="1" vertex="1">
          <mxGeometry x="20" y="260" width="120" height="60" as="geometry" />
        </mxCell>
        <mxCell id="SbjAzvhg__YMwDKprBxy-5" style="edgeStyle=orthogonalEdgeStyle;rounded=0;orthogonalLoop=1;jettySize=auto;html=1;entryX=1;entryY=0.75;entryDx=0;entryDy=0;exitX=0.5;exitY=1;exitDx=0;exitDy=0;" parent="1" source="SbjAzvhg__YMwDKprBxy-3" target="SbjAzvhg__YMwDKprBxy-1" edge="1">
          <mxGeometry relative="1" as="geometry">
            <mxPoint x="640" y="470" as="sourcePoint" />
            <Array as="points">
              <mxPoint x="700" y="390" />
              <mxPoint x="140" y="390" />
            </Array>
          </mxGeometry>
        </mxCell>
        <mxCell id="SbjAzvhg__YMwDKprBxy-6" value="RETURNS&amp;nbsp;&lt;div&gt;EXCELSHEET&lt;/div&gt;" style="edgeLabel;html=1;align=center;verticalAlign=middle;resizable=0;points=[];" parent="SbjAzvhg__YMwDKprBxy-5" vertex="1" connectable="0">
          <mxGeometry x="0.1467" y="2" relative="1" as="geometry">
            <mxPoint as="offset" />
          </mxGeometry>
        </mxCell>
        <mxCell id="SbjAzvhg__YMwDKprBxy-2" value="1.0&lt;div&gt;USER&lt;/div&gt;&lt;div&gt;AUTHENTICATION&lt;/div&gt;" style="ellipse;whiteSpace=wrap;html=1;aspect=fixed;" parent="1" vertex="1">
          <mxGeometry x="360" y="250" width="80" height="80" as="geometry" />
        </mxCell>
        <mxCell id="SbjAzvhg__YMwDKprBxy-3" value="2.0&lt;div&gt;CAPTUREMARKSHEET&lt;/div&gt;" style="ellipse;whiteSpace=wrap;html=1;aspect=fixed;" parent="1" vertex="1">
          <mxGeometry x="660" y="250" width="80" height="80" as="geometry" />
        </mxCell>
        <mxCell id="SbjAzvhg__YMwDKprBxy-4" value="" style="endArrow=classic;html=1;rounded=0;exitX=1;exitY=0.5;exitDx=0;exitDy=0;" parent="1" source="SbjAzvhg__YMwDKprBxy-1" target="SbjAzvhg__YMwDKprBxy-2" edge="1">
          <mxGeometry width="50" height="50" relative="1" as="geometry">
            <mxPoint x="140" y="300" as="sourcePoint" />
            <mxPoint x="190" y="250" as="targetPoint" />
          </mxGeometry>
        </mxCell>
        <mxCell id="SbjAzvhg__YMwDKprBxy-7" value="ENTER&lt;div&gt;CREDENTIALS&lt;/div&gt;" style="edgeLabel;html=1;align=center;verticalAlign=middle;resizable=0;points=[];" parent="SbjAzvhg__YMwDKprBxy-4" vertex="1" connectable="0">
          <mxGeometry x="-0.0291" y="-1" relative="1" as="geometry">
            <mxPoint as="offset" />
          </mxGeometry>
        </mxCell>
        <mxCell id="SbjAzvhg__YMwDKprBxy-8" value="" style="endArrow=classic;html=1;rounded=0;exitX=1;exitY=0.5;exitDx=0;exitDy=0;" parent="1" source="SbjAzvhg__YMwDKprBxy-2" target="SbjAzvhg__YMwDKprBxy-3" edge="1">
          <mxGeometry width="50" height="50" relative="1" as="geometry">
            <mxPoint x="490" y="310" as="sourcePoint" />
            <mxPoint x="540" y="260" as="targetPoint" />
          </mxGeometry>
        </mxCell>
        <mxCell id="SbjAzvhg__YMwDKprBxy-9" value="VALID&lt;div&gt;USER&lt;/div&gt;" style="edgeLabel;html=1;align=center;verticalAlign=middle;resizable=0;points=[];" parent="SbjAzvhg__YMwDKprBxy-8" vertex="1" connectable="0">
          <mxGeometry x="-0.2382" y="2" relative="1" as="geometry">
            <mxPoint as="offset" />
          </mxGeometry>
        </mxCell>
        <mxCell id="SbjAzvhg__YMwDKprBxy-10" value="" style="endArrow=none;html=1;rounded=0;" parent="1" edge="1">
          <mxGeometry width="50" height="50" relative="1" as="geometry">
            <mxPoint x="360" y="210" as="sourcePoint" />
            <mxPoint x="440" y="210" as="targetPoint" />
          </mxGeometry>
        </mxCell>
        <mxCell id="SbjAzvhg__YMwDKprBxy-11" value="" style="endArrow=none;html=1;rounded=0;" parent="1" edge="1">
          <mxGeometry width="50" height="50" relative="1" as="geometry">
            <mxPoint x="360" y="160" as="sourcePoint" />
            <mxPoint x="440" y="160" as="targetPoint" />
            <Array as="points">
              <mxPoint x="360" y="160" />
              <mxPoint x="400" y="160" />
            </Array>
          </mxGeometry>
        </mxCell>
        <mxCell id="SbjAzvhg__YMwDKprBxy-12" value="USER DETAILS" style="text;html=1;align=center;verticalAlign=middle;resizable=0;points=[];autosize=1;strokeColor=none;fillColor=none;" parent="1" vertex="1">
          <mxGeometry x="345" y="170" width="110" height="30" as="geometry" />
        </mxCell>
        <mxCell id="-KTZkuWzY7kYyCTZOiwo-1" value="" style="endArrow=classic;html=1;rounded=0;exitX=0.5;exitY=0;exitDx=0;exitDy=0;" edge="1" parent="1" source="SbjAzvhg__YMwDKprBxy-2">
          <mxGeometry width="50" height="50" relative="1" as="geometry">
            <mxPoint x="560" y="310" as="sourcePoint" />
            <mxPoint x="400" y="210" as="targetPoint" />
          </mxGeometry>
        </mxCell>
      </root>
    </mxGraphModel>
  </diagram>
</mxfile>
